<svg xmlns="http://www.w3.org/2000/svg" viewBox="0 0 64 64">
  <rect width="64" height="64" rx="14" fill="#18241f" />
  <g
    transform="translate(14 14) scale(1.5)"
    fill="none"
    stroke="#f8fbf4"
    stroke-width="2.3"
    stroke-linecap="round"
    stroke-linejoin="round"
  >
    <path d="M12 22V12" />
    <path d="m16 17 2 2 4-4" />
    <path d="M21 11.127V8a2 2 0 0 0-1-1.73l-7-4a2 2 0 0 0-2 0l-7 4A2 2 0 0 0 3 8v8a2 2 0 0 0 1 1.729l7 4a2 2 0 0 0 2 .001l1.32-.753" />
    <path d="M3.29 7 12 12l8.71-5" />
    <path d="m7.5 4.27 8.997 5.148" />
  </g>
</svg>
